<svg width="56" height="56" viewBox="0 0 56 56" fill="none" xmlns="http://www.w3.org/2000/svg">
<path fill-rule="evenodd" clip-rule="evenodd" d="M29.7833 16.8833L36.8382 9.82843C38.1716 8.4951 38.8382 7.82843 39.6666 7.82843C40.4951 7.82843 41.1617 8.49509 42.4951 9.82841L42.4951 9.82843L46.1716 13.5049C47.5049 14.8382 48.1716 15.5049 48.1716 16.3333C48.1716 17.1618 47.5049 17.8284 46.1716 19.1618L39.1667 26.1667C35.302 23.8983 32.0791 20.6993 29.7833 16.8833ZM28.3291 18.3375L10.1897 36.477C9.76464 36.902 9.55211 37.1145 9.41237 37.3756C9.27264 37.6367 9.21369 37.9315 9.0958 38.5209L7.14707 48.2646C7.08055 48.5972 7.04729 48.7635 7.1419 48.8581C7.23651 48.9527 7.40281 48.9194 7.73542 48.8529L17.4791 46.9042C18.0685 46.7863 18.3632 46.7273 18.6243 46.5876C18.8854 46.4479 19.098 46.2354 19.523 45.8103L37.7087 27.6246C33.8947 25.2922 30.6861 22.1063 28.3291 18.3375Z" fill="#222222"/>
</svg>
