<svg width="56" height="56" viewBox="0 0 56 56" fill="none" xmlns="http://www.w3.org/2000/svg">
<path d="M24.0503 16.8465C25.5485 13.1115 26.2976 11.244 27.5146 10.9852C27.8346 10.9172 28.1653 10.9172 28.4853 10.9852C29.7024 11.244 30.4514 13.1115 31.9496 16.8465C32.8016 18.9704 33.2276 20.0324 34.0247 20.7548C34.2483 20.9574 34.491 21.1378 34.7494 21.2935C35.6707 21.8488 36.8207 21.9518 39.1209 22.1578C43.0147 22.5065 44.9616 22.6809 45.5561 23.791C45.6792 24.0209 45.763 24.2698 45.8038 24.5274C46.0009 25.7711 44.5696 27.0733 41.7071 29.6775L40.9122 30.4007C39.574 31.6183 38.9048 32.2271 38.5178 32.9868C38.2856 33.4425 38.1299 33.9333 38.057 34.4396C37.9354 35.2835 38.1313 36.1667 38.5232 37.933L38.6633 38.564C39.366 41.7316 39.7174 43.3154 39.2788 44.0939C38.8848 44.7932 38.159 45.2408 37.3573 45.2791C36.4647 45.3218 35.2071 44.297 32.6918 42.2474C31.0346 40.897 30.2061 40.2219 29.2862 39.9581C28.4457 39.7171 27.5543 39.7171 26.7137 39.9581C25.7939 40.2219 24.9653 40.897 23.3081 42.2474C20.7929 44.297 19.5352 45.3218 18.6427 45.2791C17.8409 45.2408 17.1152 44.7932 16.7212 44.0939C16.2825 43.3154 16.6339 41.7316 17.3367 38.5641L17.4767 37.933C17.8686 36.1667 18.0645 35.2835 17.9429 34.4396C17.87 33.9333 17.7143 33.4425 17.4822 32.9868C17.0951 32.2271 16.426 31.6183 15.0877 30.4007L14.2928 29.6775C11.4303 27.0733 9.99906 25.7711 10.1962 24.5274C10.237 24.2698 10.3207 24.0209 10.4438 23.791C11.0384 22.6809 12.9853 22.5065 16.879 22.1578C19.1792 21.9518 20.3293 21.8488 21.2506 21.2935C21.509 21.1378 21.7517 20.9574 21.9753 20.7548C22.7723 20.0324 23.1983 18.9704 24.0503 16.8465Z" fill="#222222" stroke="#222222" stroke-width="2"/>
</svg>
